<svg xmlns="http://www.w3.org/2000/svg" viewBox="0 0 800 450" role="img" aria-label="Gerenoveerde leefruimte">
  <rect width="800" height="450" fill="#e6e3dd"/>
  <rect y="340" width="800" height="110" fill="#b3afa5"/>
  <line x1="0" y1="375" x2="800" y2="375" stroke="#a19c91" stroke-width="2"/>
  <line x1="0" y1="412" x2="800" y2="412" stroke="#a19c91" stroke-width="2"/>
  <rect x="500" y="60" width="220" height="220" fill="#aebcbf" stroke="#1d1c1a" stroke-width="8"/>
  <line x1="610" y1="60" x2="610" y2="280" stroke="#1d1c1a" stroke-width="4"/>
  <rect x="90" y="250" width="240" height="66" fill="#b4502a"/>
  <rect x="102" y="216" width="216" height="48" fill="#c05f38"/>
  <rect x="90" y="312" width="18" height="34" fill="#1d1c1a"/>
  <rect x="312" y="312" width="18" height="34" fill="#1d1c1a"/>
  <circle cx="420" cy="330" r="34" fill="#d8d5cf"/>
  <rect x="386" y="330" width="68" height="14" fill="#b08d63"/>
  <path d="M180 120 h120 v60 h-120 Z" fill="none" stroke="#1d1c1a" stroke-width="5"/>
  <path d="M205 160 l25 -22 20 14 30 -24" fill="none" stroke="#b4502a" stroke-width="5" stroke-linecap="round"/>
  <path d="M660 340 q-26 -46 -4 -80 M660 340 q22 -38 6 -72" fill="none" stroke="#55604f" stroke-width="7" stroke-linecap="round"/>
  <rect x="640" y="340" width="44" height="36" fill="#b08d63"/>
</svg>
